<svg width="57" height="64" xmlns="http://www.w3.org/2000/svg">

 <g>
  <title>background</title>
  <rect fill="none" id="canvas_background" height="66" width="59" y="-1" x="-1"/>
 </g>
 <g>
  <title>Layer 1</title>
  <g id="svg_1">
   <path fill="#7100bc" id="svg_2" d="m13.89395,21.66499c0.6463,-2.1369 -0.5602,-4.3914 -2.6982,-5.0381c-2.1309,-0.6457 -4.3901,0.5559 -5.0381,2.6982c-0.3125,1.0332 -0.2041,2.126 0.3057,3.0781c1.6899,3.1567 6.3898,2.703 7.4306,-0.7382zm-2.0694,-2.1338c1.2736,2.3784 -2.3236,4.312 -3.5977,1.9287c-1.2813,-2.3928 2.3443,-4.2736 3.5977,-1.9287z"/>
   <path fill="#7100bc" id="svg_3" d="m28.40665,13.89159c5.1835,1.5708 7.4013,-6.2064 2.3398,-7.7373c-3.4351,-1.0338 -6.4279,2.6159 -4.7324,5.7764c0.5098,0.9521 1.3594,1.6484 2.3926,1.9609zm1.7607,-5.8223c2.5648,0.7733 1.4257,4.6845 -1.1816,3.9082c-2.545,-0.772 -1.4434,-4.7088 1.1816,-3.9082z"/>
   <path fill="#7100bc" id="svg_4" d="m10.82855,32.87299c-0.3115,1.0332 -0.2031,2.127 0.3066,3.0781c1.6907,3.1578 6.3905,2.7009 7.4307,-0.7383c0.3125,-1.0332 0.2041,-2.126 -0.3057,-3.0771c-1.709,-3.192 -6.4007,-2.6713 -7.4316,0.7373zm2.0703,2.1338c-1.2618,-2.3515 2.3195,-4.3189 3.5977,-1.9277c1.2627,2.3582 -2.3261,4.3115 -3.5977,1.9277z"/>
   <path fill="#7100bc" id="svg_5" d="m34.30405,20.29879c-1.047,3.4615 2.641,6.4169 5.7773,4.7324c3.1589,-1.6934 2.6904,-6.3933 -0.7393,-7.4307c-2.1457,-0.6457 -4.3929,0.5657 -5.038,2.6983zm5.667,0.2061c0,0.001 0,0.001 0.001,0.001c1.2736,2.3763 -2.3225,4.3088 -3.5986,1.9277c-1.2809,-2.3919 2.3429,-4.276 3.5976,-1.9287z"/>
   <path fill="#7100bc" id="svg_6" d="m26.25815,26.95899c1.9718,-1.0557 2.7089,-3.5038 1.6553,-5.4697c-1.6856,-3.1484 -6.387,-2.7167 -7.4316,0.7373c-1.0471,3.4618 2.638,6.4129 5.7763,4.7324zm-0.1084,-4.5264c1.2627,2.3581 -2.3208,4.312 -3.5986,1.9277c-1.2833,-2.3965 2.3464,-4.2703 3.5986,-1.9277z"/>
   <path fill="#7100bc" id="svg_7" d="m58.00335,38.86519c-0.1777,-0.4043 -0.5947,-0.6387 -1.04,-0.5898l-13.729,1.7178l-0.5275,-9.2751c0.1139,-0.0452 0.2284,-0.0883 0.3385,-0.1469c1.2617,-0.6758 1.9346,-2.0781 1.833,-3.6055c1.5205,-0.1934 2.7627,-1.1289 3.1729,-2.5029c0.4199,-1.3711 -0.0947,-2.8398 -1.25,-3.8486c2.0873,-2.7096 0.1834,-6.1107 -3.1357,-5.8525c-0.294,-2.227 -2.1148,-3.6388 -4.1253,-3.2491c-0.1369,-0.8718 -0.5997,-1.7017 -1.3356,-2.3437c2.0633,-2.6756 0.2517,-6.0749 -3.1357,-5.8535c-0.444,-3.3782 -4.1614,-4.4502 -6.3525,-1.9209c-2.6771,-2.0525 -6.0763,-0.2422 -5.8496,3.1348c-3.3521,0.432 -4.4645,4.1364 -1.9229,6.3525c-0.7278,0.9465 -1.0117,2.0916 -0.7819,3.1514c-0.544,0.1496 -1.0448,0.3973 -1.5289,0.9088c-0.7535,-0.8188 -1.8846,-1.2429 -3.1149,-1.1539c-0.4431,-3.3731 -4.1598,-4.4529 -6.3525,-1.9219c-2.6796,-2.0512 -6.0742,-0.2422 -5.8496,3.1357c-3.3394,0.4285 -4.4747,4.1264 -1.9219,6.3525c-2.0462,2.6589 -0.272,6.0674 3.1309,5.8535c0.1263,0.9582 0.5477,1.8046 1.1854,2.4028c-1.5241,1.4687 -1.341,3.8117 0.3546,5.2915c-2.0748,2.6989 -0.2074,6.0906 3.1318,5.8535c0.441,3.3453 4.1378,4.4705 6.3555,1.916c1.2729,0.9762 2.9648,1.2117 4.3279,0.2733l15.1333,11.3645l1.8031,8.8917c0.0635,0.3096 0.2686,0.5713 0.5547,0.7061c0.1357,0.0635 0.2803,0.0947 0.4258,0.0947c0.1621,0 0.3252,-0.04 0.4717,-0.1182l11.6777,-6.2549c0.2793,-0.1494 0.4707,-0.4219 0.5176,-0.7344s-0.0576,-0.6289 -0.2803,-0.8535l-6.1489,-6.1741l11.3901,-0.7458c0.3936,-0.0264 0.7354,-0.2813 0.8721,-0.6514c0.1377,-0.3701 0.0439,-0.7861 -0.2383,-1.0615l-3.2646,-3.1895l4.9395,-4.1885c0.3378,-0.2861 0.4472,-0.7597 0.2695,-1.165zm-27.3849,9.6428l10.7695,-5.7683l0.3829,6.7321l-5.7602,3.0854l-5.3922,-4.0492zm-9.5003,-7.1341c0.2239,-0.5589 0.3292,-1.1827 0.2855,-1.8339c1.5195,-0.1943 2.7617,-1.1299 3.1719,-2.5029c0.4135,-1.3511 -0.0825,-2.7928 -1.1998,-3.7998c0.6792,-0.2174 1.3165,-0.6212 1.8287,-1.2119c1.2158,0.9336 2.7568,1.1475 4.0195,0.4727c1.2617,-0.6768 1.9346,-2.0781 1.833,-3.6055c0.6041,-0.0768 1.1608,-0.2753 1.6424,-0.5676c0.2395,1.4517 1.1548,2.6297 2.4826,3.0266c0.3193,0.0977 0.6436,0.1445 0.9658,0.1445c1.0635,0 2.1074,-0.5098 2.8789,-1.3984c0.5182,0.3973 1.0964,0.6553 1.6865,0.7786l0.5495,9.6616l-12.408,6.6459l-7.7365,-5.8099zm20.5502,-25.5341c-0.1206,0.7614 0.6303,1.3617 1.3369,1.0928c2.4122,-0.8933 3.7004,1.5247 1.6221,3.0273c-0.621,0.4469 -0.5278,1.4002 0.168,1.7197c2.3342,1.0698 1.5448,3.6967 -0.9873,3.2842c-0.7526,-0.1233 -1.3649,0.614 -1.0996,1.334c0.3838,1.0391 0.123,2.1191 -0.6074,2.5098c-0.7285,0.3906 -1.7734,0.0117 -2.4258,-0.8857c-0.437,-0.5983 -1.3927,-0.5387 -1.7178,0.1738c-1.0689,2.3348 -3.6874,1.5405 -3.2891,-0.9922c0.0543,-0.3429 -0.0661,-0.7068 -0.3873,-0.9492c0.2964,-1.3025 -0.2127,-2.662 -1.3021,-3.6124c1.0763,-1.3956 1.2207,-3.2598 0.0546,-4.6127c0.534,-0.1933 0.79,-0.7741 0.5997,-1.2867c-0.8946,-2.4136 1.5209,-3.7011 3.0332,-1.625c0.4419,0.6084 1.4001,0.5329 1.7207,-0.1768c1.0447,-2.3195 3.6843,-1.5615 3.2812,0.9991zm-17.7295,-9.3086c0.759,0.1209 1.3642,-0.6198 1.0986,-1.335c-0.895,-2.4169 1.5231,-3.7001 3.0332,-1.624c0.4368,0.6014 1.3971,0.5407 1.7207,-0.1777c1.0393,-2.3147 3.6864,-1.5638 3.2803,0.999c-0.121,0.764 0.6314,1.3622 1.3369,1.0938c2.4093,-0.8936 3.7053,1.5228 1.6221,3.0273c-0.6191,0.447 -0.5273,1.4 0.1689,1.7197c0.9221,0.423 1.6303,1.2413 1.2668,2.4495c-0.0507,0.0529 -0.105,0.1 -0.1536,0.1559c-2.6719,-2.0443 -6.076,-0.2526 -5.8506,3.1357c-0.6072,0.0783 -1.1614,0.2868 -1.6447,0.584c-0.5302,-3.2729 -4.1201,-4.2687 -6.2857,-1.834c-0.0464,-0.0049 -0.0909,-0.0139 -0.136,-0.0214c-0.3226,-0.234 -0.6657,-0.4168 -1.02,-0.5491c-0.6617,-0.8169 -0.126,-1.9918 0.7426,-2.6198c0.6208,-0.4467 0.5284,-1.4027 -0.1709,-1.7207c-2.3365,-1.0643 -1.5405,-3.6912 0.9914,-3.2832zm-2.5736,9.402c0.3235,0.2537 0.689,0.4485 1.0899,0.5825c0.4339,0.3998 0.5968,0.8989 1.3011,0.8369c0.3545,-0.0371 0.6631,-0.2598 0.8096,-0.585c1.038,-2.3125 3.6846,-1.5681 3.2803,1c-0.0557,0.3516 0.0791,0.7051 0.3545,0.9307c0.2754,0.2246 0.6494,0.2881 0.9824,0.1621c1.0361,-0.3857 2.1152,-0.125 2.5068,0.6094c0.3916,0.7305 0.0117,1.7705 -0.8848,2.418c-0.6191,0.447 -0.5273,1.4 0.1689,1.7197c2.3226,1.0656 1.5584,3.6929 -0.9883,3.2832c-0.7458,-0.1243 -1.3674,0.6101 -1.0986,1.334c0.8891,2.4094 -1.5125,3.7107 -3.0342,1.625c-0.4308,-0.5918 -1.3912,-0.5442 -1.7188,0.1738c-0.459,1.0078 -1.4014,1.584 -2.1953,1.3418c-0.7949,-0.2383 -1.2646,-1.2412 -1.0918,-2.334c0.0961,-0.607 -0.3729,-1.1563 -0.9873,-1.1563c-0.1172,0 -0.2363,0.0205 -0.3496,0.0635c-2.3994,0.8975 -3.6972,-1.528 -1.6172,-3.0303c0.6206,-0.4487 0.5262,-1.4032 -0.1719,-1.7207c-2.3523,-1.0715 -1.5184,-3.6988 0.9902,-3.2822c0.7675,0.1205 1.3637,-0.6227 1.0996,-1.334c-0.5293,-1.4336 0.1764,-2.8953 1.5545,-2.6381zm-16.1803,9.1039c-2.4056,0.8964 -3.692,-1.5311 -1.6162,-3.0303c0.2881,-0.209 0.4443,-0.5547 0.4092,-0.9092s-0.2568,-0.6641 -0.5811,-0.8115c-2.3569,-1.0736 -1.5095,-3.7023 0.9902,-3.2822c0.7638,0.1199 1.3648,-0.6208 1.0996,-1.335c-0.8937,-2.4135 1.5204,-3.7048 3.0332,-1.625c0.4366,0.6011 1.3977,0.5393 1.7207,-0.1777c1.0431,-2.3165 3.6859,-1.5612 3.2803,0.999c-0.1212,0.7652 0.6307,1.3609 1.3369,1.0937c1.6407,-0.6108 3.2059,0.4118 2.477,2.0035c-3.1302,0.6267 -4.0456,4.1136 -1.658,6.2525c-0.6841,0.213 -1.3267,0.6071 -1.8395,1.1991c-2.6647,-2.0418 -6.0476,-0.2631 -5.8497,3.1013c-1.0745,0.0078 -1.6503,-1.2117 -1.4657,-2.3855c0.1206,-0.7616 -0.63,-1.3608 -1.3369,-1.0927zm11.0146,15.459c-0.4353,-0.598 -1.3936,-0.5388 -1.7188,0.1738c-1.0671,2.3359 -3.6875,1.5388 -3.2871,-0.9922c0.1206,-0.7617 -0.63,-1.3609 -1.3369,-1.0928c-2.4136,0.8988 -3.6876,-1.5334 -1.6172,-3.0303c0.6206,-0.4487 0.5262,-1.4032 -0.1719,-1.7207c-2.3472,-1.0691 -1.5242,-3.7051 0.9902,-3.2822c0.7611,0.1213 1.365,-0.6194 1.0996,-1.334c-0.8907,-2.4115 1.5206,-3.7069 3.0342,-1.626c0.4216,0.5784 1.3755,0.5767 1.7378,-0.2068c0.3769,1.8003 2.053,2.8533 3.9204,2.7244c0.171,1.2972 0.884,2.3872 1.9425,2.9345c-0.1682,0.5279 0.1029,1.0147 0.5282,1.21c1.0068,0.4619 1.584,1.4072 1.3408,2.2051c-0.2363,0.792 -1.2354,1.2578 -2.3301,1.0791c-0.7501,-0.1254 -1.3651,0.6138 -1.0977,1.334c0.3838,1.04 0.123,2.1182 -0.6084,2.5088c-0.7283,0.3936 -1.7732,0.0108 -2.4256,-0.8847zm22.3106,20.9892l-1.4628,-7.2133l5.5766,-2.9873l5.1938,5.2153l-9.3076,4.9853zm12.1533,-18.082c-0.2148,0.1816 -0.3428,0.4463 -0.3525,0.7275c-0.0107,0.2813 0.0986,0.5537 0.2998,0.75l2.4473,2.3906l-9.374,0.6143l-0.335,-5.8916l10.5303,-1.3174l-3.2159,2.7266z"/>
  </g>
  <text id="svg_9" font-family="'Helvetica Neue', Helvetica, Arial-Unicode, Arial, Sans-serif" font-weight="bold" font-size="5px" fill="#000000" y="86" x="0">from the Noun Project</text>
 </g>
</svg>